<?xml version="1.0" encoding="utf-8"?>
<!-- Generator: $$$/GeneralStr/196=Adobe Illustrator 27.6.0, SVG Export Plug-In . SVG Version: 6.00 Build 0)  -->
<svg version="1.1" id="Logo" xmlns:serif="http://www.serif.com/"
	 xmlns="http://www.w3.org/2000/svg" xmlns:xlink="http://www.w3.org/1999/xlink" x="0px" y="0px" viewBox="0 0 64 27.8"
	 style="enable-background:new 0 0 64 27.8;" xml:space="preserve">
<style type="text/css">
	.st0{fill-rule:evenodd;clip-rule:evenodd;fill:#7DBB41;}
	.st1{fill:#7DBB41;}
	.st2{fill:none;stroke:#484848;stroke-width:0.2286;stroke-linecap:round;stroke-linejoin:round;stroke-miterlimit:10;}
	.st3{fill:none;stroke:#595959;stroke-width:0.2286;stroke-linecap:round;stroke-linejoin:round;stroke-miterlimit:10;}
</style>
<g>
	<path id="superior" class="st0" d="M29.6,25.3c0.2,0.2,0.5,0.4,0.8,0.4s0.5-0.1,0.5-0.3c0-0.5-1.4-0.1-1.4-0.8
		c0-0.4,0.4-0.5,0.8-0.5c0.6,0,0.8,0.2,0.9,0.4L31,24.6c-0.2-0.2-0.4-0.3-0.7-0.3c-0.3,0-0.5,0.1-0.5,0.3c0,0.4,1.4,0,1.4,0.8
		c0,0.4-0.4,0.5-0.8,0.5s-0.7-0.1-0.9-0.4C29.4,25.5,29.6,25.3,29.6,25.3z M33.7,25.8h-0.3v-0.2c-0.2,0.2-0.5,0.3-0.7,0.3
		s-0.7,0-0.7-0.6v-1.1h0.3v1.1l0,0c0,0.2,0.2,0.4,0.4,0.4c0,0,0,0,0.1,0c0.3,0,0.5-0.1,0.7-0.3v-1.2h0.3L33.7,25.8L33.7,25.8z
		 M34.6,24.1h0.3v0.3c0.2-0.2,0.5-0.3,0.8-0.3c0,0,0,0,0.1,0c0.5,0,0.9,0.4,0.9,0.9l0,0l0,0c0,0.5-0.4,0.9-0.9,0.9h-0.1
		c-0.3,0-0.6-0.1-0.8-0.3v0.8h-0.3V24.1z M34.9,25.3c0.2,0.2,0.5,0.3,0.7,0.3c0,0,0,0,0.1,0c0.4,0,0.7-0.3,0.7-0.7l0,0
		c0-0.4-0.3-0.7-0.7-0.7c0,0,0,0-0.1,0c-0.3,0-0.6,0.2-0.7,0.4V25.3z M39.2,25.4c-0.2,0.3-0.6,0.4-0.9,0.4c0,0,0,0-0.1,0
		c-0.5,0-0.9-0.4-0.9-0.9l0,0l0,0c0-0.5,0.4-0.9,0.9-0.9c0,0,0,0,0.1,0c0.5,0,1,0.3,1,1h-1.7c0,0.4,0.4,0.7,0.7,0.6
		c0.3,0,0.5-0.1,0.7-0.3C39,25.3,39.2,25.4,39.2,25.4z M38.9,24.8c-0.1-0.3-0.4-0.5-0.7-0.5s-0.6,0.2-0.7,0.5H38.9z M40,24.1h0.3
		v0.4c0.2-0.2,0.4-0.4,0.7-0.4c0.1,0,0.1,0,0.2,0v0.3c-0.1,0-0.1,0-0.2,0c-0.4,0-0.6,0.4-0.7,0.5v1H40C40,25.8,40,24.1,40,24.1z
		 M42.2,23.7h-0.3v-0.3h0.3V23.7z M41.9,24.1h0.3v1.7h-0.3V24.1z M42.9,24.9c0-0.5,0.4-0.9,1-0.9s1,0.4,1,0.9c0,0.6-0.4,0.9-1,0.9
		S42.9,25.5,42.9,24.9z M44.6,25c0-0.4-0.3-0.7-0.7-0.7s-0.7,0.3-0.7,0.7s0.3,0.7,0.7,0.7S44.6,25.3,44.6,25z M45.7,24.1H46v0.4
		c0.2-0.2,0.4-0.4,0.7-0.4c0.1,0,0.1,0,0.2,0v0.3c-0.1,0-0.1,0-0.2,0c-0.4,0-0.6,0.4-0.7,0.5v1h-0.3C45.7,25.8,45.7,24.1,45.7,24.1z
		"/>
	<path id="Pfad_436" class="st1" d="M27,12.7L27,12.7c0.3-0.3,0.7-0.7,1-0.9l0.3-0.2c0,0,0,0,0.1-0.1c-0.1,0-0.2-0.1-0.3-0.1
		c-0.2,0-0.5,0.2-0.8,0.5c-0.2,0.2-0.4,0.4-0.4,0.6C26.8,12.6,26.8,12.7,27,12.7"/>
	<path id="Kaiserhof" class="st0" d="M30.5,13.9L30.5,13.9c0,0,0.2,0.3,0.6,0.8c0.3,0.4,0.5,0.8,0.5,1.3c0,0.7-0.3,1.2-1.1,1.7
		c1-0.2,2.1-0.9,3.4-2.3l0,0c0.7-1.2,1.9-2.2,2.8-2.2c0.4,0,0.6,0.2,0.6,0.5c0,1-1.5,2-2.7,2c-0.1,0-0.3,0-0.4,0
		c-0.1,0.2-0.1,0.5-0.1,0.8c0,0,0,0,0,0.1c0,0.6,0.5,1.1,1.1,1.1l0,0c0.9,0,2.1-0.9,3.8-2.8c0,0,0.6-0.6,0.6-0.7
		c-0.1-0.1-0.1-0.2-0.1-0.4c0-0.4,0.4-1,0.7-1c0.1,0,0.2,0.1,0.2,0.3l0,0c0,0.2-0.1,0.4-0.5,0.9l-0.1,0.1c0.1,0,0.2,0,0.2,0
		c0.4,0,0.7-0.1,1.1-0.3c0.5-0.2,0.4-0.2,0.5-0.2l0,0c0.1,0,0.2,0.1,0.2,0.2c0,0.1,0,0.1-0.1,0.2l-0.3,0.4c-0.6,0.7-1,1.6-1,2.1l0,0
		c0,0.5,0.4,0.8,0.8,0.8l0,0c0.6,0,1.2-0.4,2.3-1.4c0.4-0.4,0.8-0.8,1.2-1.3l0.3,0.2c0.4-1.3,0.9-2.6,1.5-3.8c0.5-1,1.1-2,1.7-3
		c0.5-0.6,0.8-0.9,1.1-0.9c0.1,0,0.2,0.1,0.2,0.2c0,0.6-0.6,2-1.5,3.5c-0.6,1-1.2,1.9-2,2.8L45.6,14v0.2c-0.2,0.7-0.2,1.1-0.3,1.6
		c-0.1,0.2-0.1,0.5-0.1,0.7c0,0.1,0,0.2,0.1,0.2s0.1-0.1,0.2-0.1c0.5-0.5,1.1-1,1.8-1.5c1-0.7,1.8-1.1,2.2-1.1l0,0
		c0.2,0,0.4,0.2,0.4,0.4c0,0,0,0,0,0.1c0,0.2,0,0.3-0.1,0.5c-0.3,1-0.3,1.3-0.3,1.6c0,0.4,0.2,0.6,0.5,0.6c0.5,0,1.7-0.8,2.8-2.1
		l0.3-0.4l0,0c0.6-0.8,1.5-1.4,2.3-1.4c0.4,0,0.7,0.1,0.7,0.2S56,13.6,56,13.7c-0.1,0.1-0.1,0.1-0.2,0.1h-0.1
		c-0.2-0.1-0.4-0.2-0.5-0.2c-1.1,0-2.2,1.2-2.2,2.5c0,0.8,0.5,1.4,1.2,1.4c0.9,0,1.7-0.9,1.7-1.9c0-0.2,0-0.4-0.1-0.5L55.6,15
		c-0.3-0.1-0.5-0.3-0.5-0.4c0-0.1,0.1-0.2,0.2-0.2c0.2,0,0.4,0.1,0.6,0.5c0.3,0.1,0.5,0.2,0.8,0.1c0.6,0,1.1-0.2,1.5-0.6
		c0.8-2.1,1.9-4.1,3.3-5.9c0.6-0.8,1-1.2,1.3-1.2C63,7.3,63,7.4,63,7.6c0,0.4-0.2,0.8-0.4,1.2c-0.5,0.9-1,1.8-1.7,2.6
		c-0.6,0.8-1.4,1.8-1.8,2.2c0,0-0.6,0.7-0.8,0.9c-0.2,0.6-0.5,1.2-0.6,1.8C57.2,18,57,19.1,57,20c0,0.7,0.2,1.2,0.6,1.2
		c0.4,0,0.8-0.5,1.2-1.4s0.5-1.9,0.5-3c0-0.1,0-0.2,0-0.4c-0.1,0-0.2-0.1-0.2-0.1c-0.4-0.2-0.7-0.6-0.7-0.9c0-0.2,0.1-0.4,0.3-0.4
		c0.4,0,0.6,0.4,0.8,1.1c0.3,0.1,0.6,0.1,0.9,0.1c1,0,2-0.5,2.8-1.4l0.4-0.5c0.1-0.1,0.1-0.2,0.2-0.2c0,0,0.1,0,0.1,0.1
		s-0.1,0.2-0.5,0.6c-1.1,1.1-2.1,1.7-3.2,1.7c-0.3,0-0.5,0-0.7-0.1v0.2c0,1.2-0.2,2.4-0.7,3.5c-0.4,1-1,1.6-1.5,1.6
		s-0.7-0.5-0.7-1.5c0-0.8,0.1-1.6,0.6-3c0.2-0.8,0.5-1.6,0.9-2.6c-0.4,0.3-0.9,0.5-1.4,0.4c-0.3,0-0.5,0-0.7-0.1c0,0.2,0,0.3,0,0.5
		c0,1.2-1.2,2.5-2.3,2.5c-0.8,0-1.4-0.7-1.4-1.5c0-0.4,0.1-0.8,0.2-1.1c-0.1,0.1-0.2,0.2-0.3,0.3c-1.3,1.3-2.2,1.8-2.9,1.8l0,0
		c-0.4,0-0.7-0.3-0.7-0.7l0,0c0-0.2,0-0.4,0.1-0.7l0.2-0.6c0.1-0.2,0.1-0.5,0.1-0.7c0-0.1-0.1-0.3-0.3-0.3c-0.3,0-1,0.4-1.9,1
		c-0.7,0.5-1.4,1.1-1.9,1.8c-0.2,0.3-0.3,0.3-0.3,0.3c-0.1,0-0.2-0.1-0.2-0.4c0-0.7,0.1-1.4,0.3-2.1c-1.8,2-2.9,2.8-3.9,2.8
		c0,0,0,0-0.1,0c-0.6,0-1.1-0.5-1.1-1.1l0,0c0-0.7,0.3-1.4,1.1-2.4c0.1-0.1,0.1-0.1,0.1-0.2c0,0,0-0.1-0.1-0.1s-0.2,0-0.3,0.1
		c-0.2,0.1-0.4,0.1-0.6,0.1c-0.1,0-0.3,0-0.4-0.1c0,0-0.4,0.4-0.5,0.6c-1.2,1.3-1.8,1.9-2.5,2.4c-0.7,0.6-1.5,0.9-2,0.9l0,0
		c-0.7,0-1.3-0.6-1.3-1.3v-0.1c0-0.3,0.1-0.7,0.2-1c-1.3,1.3-2.4,1.9-3.6,1.9c-0.3,0.1-0.6,0.1-0.9,0.1c-0.6,0-1-0.2-1-0.4l0,0
		c0-0.1,0.1-0.2,0.2-0.2l0,0c0.1,0,0.3,0.1,0.4,0.1c0.3,0.1,0.7,0.2,1,0.2c0.7-0.2,1.2-0.9,1.2-1.8c0-0.5-0.1-0.8-0.6-1.6l-0.1-0.2
		c-0.3,0.4-0.8,0.9-1,1.1c-1.7,1.7-3.1,2.8-3.9,2.8c-0.4,0-0.7-0.3-0.7-0.8s0.2-1.1,0.6-1.9c-1.6,1.7-2.9,2.7-3.6,2.7
		c-0.5,0-0.8-0.4-0.8-1c0-0.3,0.1-0.6,0.1-0.9l-0.1,0.1c-1.1,1.2-2,1.7-2.7,1.7c-0.5,0-0.8-0.3-0.8-0.9c0-0.9,0.9-2.2,2.1-3.1
		c1-0.7,2.2-1.2,3.1-1.2c0.8,0,1.3,0.3,1.3,0.9c0,0.5-0.4,1-1.2,1.3v-0.1c0.5-0.3,0.7-0.6,0.7-1c0-0.5-0.4-0.7-1.1-0.7
		c-1,0-2.4,0.7-3.2,1.7c-0.6,0.6-1,1.4-1,1.9l0,0c0,0.4,0.3,0.7,0.7,0.7l0,0c0.8,0,2.1-1.1,3-2.6c0.1,0,0.2-0.1,0.3-0.1
		c0.1,0,0.1,0,0.2,0.2c-0.5,0.8-0.7,1.5-0.7,2c0,0.4,0.2,0.6,0.5,0.6c0.4,0,0.9-0.3,1.7-1.1c0.5-0.4,1-0.9,1.5-1.4l0.2-0.3
		c0.1-0.1,0.2-0.2,0.2-0.2c0.1-0.2,0.2-0.4,0.4-0.5c0.2-0.1,0.4-0.1,0.7-0.2l-0.1,0.2c-0.9,1.5-1.3,2.3-1.3,3c0,0.3,0.1,0.5,0.4,0.5
		c0.7,0,2.1-1.1,3.6-2.7c0.2-0.3,0.9-0.7,0.8-0.9c-0.1-0.1-0.1-0.3-0.1-0.5c0-0.4,0.3-0.8,0.5-0.8s0.3,0.1,0.3,0.3s-0.1,0.5-0.3,0.6
		L30.5,13.9C30.5,13.8,30.5,13.8,30.5,13.9L30.5,13.9z M47.7,9.1c-0.8,1.4-1.5,3-2,4.6c0.3-0.3,0.6-0.7,0.8-1.1
		c0.8-1.1,1.5-2.3,2.1-3.5c0.3-0.7,0.4-1,0.4-1.3c0-0.1,0-0.2-0.1-0.2C48.7,7.6,48.3,8.1,47.7,9.1z M58.7,15.6L58.7,15.6
		c0,0.2,0.2,0.4,0.6,0.7C59.2,15.8,59,15.5,58.7,15.6C58.7,15.5,58.7,15.5,58.7,15.6z M60.5,10.6L60.5,10.6
		c-0.7,1.1-1.3,2.3-1.8,3.5c0.4-0.4,0.8-0.8,1.2-1.3c0.8-0.9,1.5-1.9,2.1-2.9c0.5-0.8,0.8-1.5,0.8-1.8c0-0.1,0-0.2-0.1-0.2
		C62.3,8,61.5,8.9,60.5,10.6z M36.4,13.5c-0.4,0-1.1,0.4-1.5,0.9c-0.3,0.3-0.5,0.7-0.7,1.1c0.1,0,0.2,0,0.4,0c1,0,2.3-0.9,2.3-1.7
		C36.9,13.6,36.7,13.5,36.4,13.5z M20.9,5.8c0.1,0,0.2,0,0.2,0.1s0,0.2-0.1,0.3l-0.2,0.4c-0.6,1.2-2,3-3.4,4.3
		c-1.3,1.3-2.8,2.3-4.4,3.1c0,0,0.4,0.6,3.3,5.2c1.1,1.7,2,2,2.7,2c0.4,0,0.9-0.1,1.3-0.2l0.1,0.1c-0.6,0.3-1.3,0.4-1.9,0.3
		c-1.1-0.2-2.1-1.6-2.9-2.6c-2.6-3.7-3.1-4.6-3.1-4.6c-0.2,0.1-0.4,0.2-0.7,0.2c-2.6,4.1-6,6.9-9,6.9c-1.5,0-2.7-0.9-2.7-2.1
		c0-2,2.9-3.7,6.1-3.7c0.9,0,1.8,0.1,2.7,0.4C9.1,16,9.2,16,9.2,16.1c0,0-0.1,0.1-0.2,0.2c-1-0.3-2-0.5-3-0.5
		c-2.8,0-5.4,1.4-5.5,3.1c0,1.1,0.9,1.8,2.3,1.8c2.3,0,5.1-1.7,7.5-4.7c0.4-0.5,0.7-1,1-1.5c-0.3,0.1-0.6,0.1-0.9,0.1
		c-1.7,0-3.1-1.3-3.1-2.7c0,0,0,0,0-0.1c0-0.9,0.7-1.6,1.6-1.6H9c0.5,0,0.9,0.2,1.3,0.4c0.4,0.3,0.7,0.5,1.3,1.3l0.1,0.1l0.1,0.2
		l0.4,0.5c0.4-0.7,0.7-1.5,1-2.3c0.2-0.5,0.3-1.1,0.5-1.6c0.2-0.9,0.3-1.6,0.2-2.3c-0.2-1-0.8-1.4-1.7-1.3c-0.8,0.1-1.7,0.6-2.4,1.3
		V6.3c0-0.3,0-0.4,0.2-0.6c0.7-0.6,1.4-1,2.3-1.1c1.1-0.2,1.8,0.4,2,1.5s-0.1,2.4-0.8,4.4c-0.2,0.4-0.3,0.9-0.5,1.3
		c-0.2,0.3-0.3,0.7-0.5,1.1l0.4,0.7c2-1,3.9-2.4,5.4-4c1.3-1.4,2-2.6,2.3-4C20.7,5.9,20.8,5.8,20.9,5.8z M10.5,14.5L10.5,14.5
		c0.3,0,0.7-0.1,1-0.1c0.1-0.2,0.3-0.4,0.4-0.7c-0.2-0.3-0.4-0.6-0.5-0.8c-1.1-1.6-1.8-2.2-2.6-2.2c-0.7,0-1.2,0.6-1.2,1.4
		C7.6,13.4,9,14.6,10.5,14.5z M11.8,14.3c0.2-0.1,0.3-0.1,0.4-0.2c0,0-0.1-0.1-0.2-0.2C12,14.1,11.9,14.2,11.8,14.3z"/>
	<path id="star1" class="st1" d="M27.2,19.9l-0.3,0.9H26l0.8,0.6l-0.3,0.9l0.8-0.6l0.8,0.6l-0.3-0.9l0.8-0.6h-0.9L27.2,19.9z"/>
	<path id="star2" class="st1" d="M32.6,19.9l-0.2,0.9h-0.9l0.8,0.6L32,22.3l0.8-0.6l0.8,0.6l-0.3-0.9l0.8-0.6h-0.9
		C32.9,20.8,32.6,19.9,32.6,19.9z"/>
	<path id="star3" class="st1" d="M38.1,19.9l-0.3,0.9h-0.9l0.8,0.6l-0.3,0.9l0.8-0.6l0.8,0.6l-0.3-0.9l0.8-0.6h-0.9
		C38.4,20.8,38.1,19.9,38.1,19.9z"/>
	<path id="star4" class="st1" d="M43.6,19.9l-0.3,0.9h-0.9l0.8,0.6l-0.3,0.9l0.8-0.6l0.8,0.6l-0.3-0.9l0.8-0.6h-0.9L43.6,19.9z"/>
	<path id="star5" class="st1" d="M49.1,19.9l-0.3,0.9h-0.9l0.8,0.6l-0.3,0.9l0.8-0.6l0.8,0.6l-0.3-0.9l0.8-0.6h-0.9L49.1,19.9z"/>
</g>
<g id="b2">
	<path id="Pfad_412" class="st1" d="M35.8,2.3v0.6l-0.1,0.3l-0.1,0.6L35.7,3V2.7C35.8,2.7,35.8,2.3,35.8,2.3z"/>
	<path id="Pfad_413" class="st1" d="M35.8,1.7l0.3-0.4l0.6-0.1l0.9,0.4l-0.9-0.4H36L35.8,1.7z"/>
	<path id="Pfad_414" class="st1" d="M35.9,4.6l0.2,0.2h-0.3L35.9,4.6L35.9,4.6z"/>
	<path id="Pfad_415" class="st1" d="M35.4,6.9l0.2,0.3l0.6,0.3h0.5l-0.5,0.1l-0.6-0.3C35.5,7.2,35.4,6.9,35.4,6.9z"/>
	<path id="Pfad_416" class="st1" d="M39.5,8.2L40,8.7l0.5,0.1L41,8.7l-0.4,0.2L40,8.8C39.9,8.7,39.5,8.2,39.5,8.2z"/>
	<path id="Pfad_417" class="st1" d="M43.1,4.9l0.4-0.4L43.7,4l-0.2-0.4L43,3.2l0.5,0.2l0.2,0.4l-0.2,0.6L43.1,4.9z"/>
	<path id="Pfad_418" class="st1" d="M40.2,3.2L40,3.6l0.5-0.3l-0.3,0.1V3.2z"/>
	<path id="Pfad_419" class="st1" d="M39.1,3.2L39,3.4V3.1l-0.3-0.5L39,3.1L39.1,3.2L39.1,3.2z"/>
	<path id="Pfad_420" class="st1" d="M35.8,1.4l0.1-0.2L36,1.1h0.4h-0.5l-0.2,0.1L35.8,1.4z"/>
	<path id="Pfad_421" class="st1" d="M43.3,3.3l0.3,0.1l0.3,0.4l-0.1,0.3L44,3.8l-0.3-0.5C43.6,3.3,43.3,3.3,43.3,3.3z"/>
	<path id="butterfly2" class="st1" d="M43.3,4l-0.1,0.2l-0.3,0.3l-0.4,0.4l-0.2,0.5l-0.1,0.4l0.1-0.5l0.1-0.4l0.3-0.4l0.4-0.3
		l0.1-0.3L43,3.5l0.2,0.3C43.3,3.7,43.3,4,43.3,4z M42.8,3.9L42.8,3.9L42.8,3.9L42.5,4h-0.1V3.9l0.1-0.1h0.1L42.8,3.9
		C42.8,3.8,42.8,3.9,42.8,3.9z M42.8,3.6L42.8,3.6L42.8,3.6l-0.3,0.1l-0.1-0.1l-0.1-0.1V3.4h0.1l-0.1-0.1V3.2h0.1h0.1h0.2h0.1v0.1
		h-0.1h0.1V3.6L42.8,3.6C42.7,3.5,42.8,3.6,42.8,3.6z M42.2,4L42.2,4v0.2l0,0h-0.1h0.2h0.1l0.1,0.1v0.1v0.1c0,0.1-0.1,0.1-0.2,0.2
		c-0.1,0-0.3-0.1-0.3-0.1l-0.1-0.1V4.4V4.3L42,4.2h-0.3l-0.2-0.1V4l0.1-0.1h-0.2h-0.3l-0.3-0.1l0,0h-0.1l-0.2-0.1l0.4-0.1l0.3-0.1
		h0.2l0.1,0.1v0.1h-0.1h0.3H42l0,0v0.1l-0.1,0.1L42.2,4L42.2,4C42.1,3.9,42.2,4,42.2,4z M40.1,4.1h0.4l0.4,0.1l0.5,0.2h-0.7
		l-0.6,0.1h0.8l0.8,0.1L42,4.9l0.1,0.2l0.1,0.2v0.2l-0.1,0.1H42l-0.6-0.3L40.3,5h-0.5l0.7,0.1l1,0.4l0.6,0.4V6L42,6.1l-0.1,0.1h-0.1
		l-0.5-0.4l-0.7-0.3l-0.8-0.1l0.8,0.2l0.7,0.3L41.4,6H41l-0.7-0.3l-0.4,0.1L40.4,6L41,6.3l0.5,0.5l0.1,0.3v0.1l-0.1,0.2h-0.1
		l-0.1-0.1L41,7l-0.3-0.3l-0.4-0.3l0.4,0.5L41,7.4v0.2l-0.1,0.2l0,0l-0.2-0.1l-0.3-0.5l-0.2-0.4l-0.4-0.3l0.4,0.4l0.3,0.5l0.1,0.3
		v0.2L40.5,8l-0.1,0.1L40.2,8L40,7.5l-0.1-0.3L39.8,7l-0.3-0.2l0.2,0.4l0.2,0.4L40,7.9V8l-0.1,0.1h-0.1L39.7,8l-0.1-0.4l-0.2-0.4
		l-0.3-0.4l-0.3-0.3c0,0,0.3-0.7,0.4-0.8l0.1-0.1h0.1h0.2l-0.2-0.2l-0.1-0.2V5l0.1-0.5l0.2-0.3L40.1,4.1L40.1,4.1z M38.9,4v0.3
		l-0.1,0.4L38.6,5l-0.2,0.2h-0.3l0.2,0.1l0.1,0.1v0.1c0,0.1-0.1,0.9-0.1,0.9l-0.5,0.1l-0.5,0.1L37,6.8L36.7,7h-0.1h-0.1V6.9l0.1-0.1
		l0.3-0.2l0.4-0.2l0.4-0.2h-0.3L37,6.3l-0.3,0.2l-0.4,0.3h-0.2L36,6.6V6.4l0.1-0.1l0.3-0.2L37,5.8l0.5-0.1H37l-0.5,0.1l-0.6,0.3
		h-0.2L35.6,6l0.1-0.2l0.1-0.1l0.5-0.2l0.6-0.1h-0.4l-0.4,0.1l-0.3,0.1h-0.2l-0.1-0.1V5.3l0.1-0.1l0.2-0.1L36.5,5l0.7,0.1l0.5,0.1
		L37.2,5l-0.7-0.2l-0.4-0.2l0.2-0.1l0.8,0.1l0.8,0.3l-0.7-0.4l-0.7-0.2h-0.6V4.1L36,3.9h0.8l1,0.3l0.6,0.3L38,4.2l-1-0.4l-0.8-0.1
		l0.2-0.3l0.4-0.2l0.4-0.1l0.7,0.4L38.5,4l-0.4-0.5l-0.6-0.4L38,3.2l0.4,0.2l0.3,0.3L38.9,4L38.9,4z M38.6,3.1h-0.3L38.2,3v0.1L38,3
		l-0.2-0.2l-0.2-0.1v0.1l-0.1,0.1h-0.2l-0.2-0.1v0.1V3H37h-0.1c0,0-0.3,0-0.3-0.1s-0.1-0.1,0-0.2V2.6l0.1-0.1h0.1h0.1l0.2,0.1
		L37,2.5V2.4V2.3h0.1h0.1l0.1,0.1l0.1,0.1l-0.1-0.2l0,0h0.1l0.2,0.1l0.2,0.2l-0.1-0.1V2.4h0.1L38,2.5l0.2,0.2
		C38.4,2.7,38.6,3.1,38.6,3.1z M36.9,2L36.9,2L36.9,2h-0.2V1.9V1.8h0.1h0.1L36.9,2L36.9,2z M36.7,1.4l-0.3,0.2l-0.1,0.3l0.1,0.5v0.5
		l-0.1,0.4L36,3.9l0.2-0.5l0.1-0.5l-0.1-0.5l-0.1-0.5l0.1-0.2l0.2-0.2C36.3,1.5,36.7,1.4,36.7,1.4z M35.8,6.9L35.8,6.9L35.8,6.9
		L36.4,7v0.1l-0.1,0.1L35.8,6.9C35.8,7,35.8,6.9,35.8,6.9z M40.1,8.2L40.1,8.2h0.6l0.1,0.1v0.1h-0.1l-0.5-0.1
		C40.1,8.3,40.1,8.2,40.1,8.2z M43.5,3.9l-0.2-0.3l-0.4-0.2l-0.8-0.2l-0.8,0.1l-0.8,0.3L40,3.8l-0.4,0.3V3.9l0.1-0.1l0.1-0.2
		l-0.1,0.1h-0.1l0.2-0.3l0.4-0.5l0.4-0.5l0.2-0.5l0.1-0.2V1.6h-0.1l-0.1,0.1v0.1V2l-0.2,0.4l-0.4,0.5l-0.4,0.5l-0.2,0.2h-0.1
		l-0.1-0.1l0.1-0.9V2.1l-0.2-0.6l-0.1-0.2L39,1.2l-0.2-0.1h-0.1v0.1l0.1,0.1l0.1,0.1l0.2,0.2l0.2,0.6v0.5l-0.1,0.9l-0.1-0.3v0.3v0.2
		L39,4l-0.2-0.9l-0.5-0.8l-0.6-0.6l-1.1-0.5l-0.5,0.1l-0.3,0.4l0.1,0.4L36,2.7v0.6l-0.2,0.5l-0.1,0.4l0.1,0.3l0.4,0.3l0.3,0.1
		L35.8,5l-0.4,0.2l-0.2,0.4v0.6l0.2,0.4l0.3,0.5l0.6,0.3h0.2l0.2-0.1l0.5-0.4l0.6-0.2l0.5-0.1v0.3l-0.1,0.4v0.3l0,0l0.1-0.2L38.5,7
		l0.2-0.3l0.5,0.6l0.3,0.9l0.4,0.3l0.3,0.1h0.3l0.6-0.3l0.4-0.4l0.1-0.6l-0.4-0.5l-0.6-0.5l0.6,0.1h0.5l0.2-0.1L42,6.1l0.2-0.5
		l0.2-0.4l0.2-0.3L43,4.5L43.5,3.9L43.5,3.9z"/>
</g>
<g id="b1">
	<path id="Pfad_424" class="st1" d="M34.2,6.3c-0.1,0.3,0,0.6,0.1,0.8C34.3,6.9,34.2,6.6,34.2,6.3z"/>
	<path id="Pfad_425" class="st1" d="M34.2,6l-0.1-0.2c-0.2-0.1-0.7,0.1-0.9,0.2c0.2-0.1,0.7-0.3,1-0.2C34.1,5.7,34.2,6,34.2,6z"/>
	<path id="Pfad_426" class="st1" d="M34.2,7.6L34,7.7L34.2,7.6L34.2,7.6C34.1,7.7,34.2,7.6,34.2,7.6z"/>
	<path id="Pfad_427" class="st1" d="M32,9.5l-0.3,0.3c-0.2,0.1-0.4,0-0.6,0l0.3,0.1l0.3-0.1C31.7,9.9,32,9.5,32,9.5z"/>
	<path id="Pfad_428" class="st1" d="M30.5,8.6h0.3l-0.3,0.2l0.1-0.2H30.5z"/>
	<path id="Pfad_429" class="st1" d="M29.8,7.8c-0.1-0.1-0.3-0.3-0.3-0.5l0.1-0.2l0.3-0.2L29.6,7l-0.1,0.2l0.1,0.3
		C29.5,7.6,29.8,7.8,29.8,7.8z"/>
	<path id="Pfad_430" class="st1" d="M31.5,6.9l0.1,0.2l-0.3-0.2H31.5L31.5,6.9z"/>
	<path id="Pfad_431" class="st1" d="M32.2,6.9L32.2,6.9c0,0,0.2-0.3,0.3-0.4C32.4,6.6,32.2,6.8,32.2,6.9L32.2,6.9z"/>
	<path id="Pfad_432" class="st1" d="M34.2,5.9L34.2,5.9c-0.2-0.2-0.4-0.2-0.5-0.2H34l0.1,0.1C34.2,5.7,34.2,5.9,34.2,5.9z"/>
	<path id="Pfad_433" class="st1" d="M29.6,6.9h-0.2l-0.2,0.2v0.2l-0.1-0.2l0.2-0.3C29.4,6.9,29.6,6.9,29.6,6.9z"/>
	<path id="Pfad_434" class="st1" d="M31.9,9.8L31.7,10l-0.4,0.1h0.4L31.9,9.8z"/>
	<path id="butterfly1" class="st1" d="M34.1,7.8c0.1,0,0.2,0.1,0.2,0.2l-0.1,0.1c-0.3,0-0.6-0.2-0.9-0.1c0.2,0.1,0.7,0.1,0.8,0.4
		v0.1c-0.3,0-0.7-0.3-1-0.2c0.3,0,0.8,0.1,0.9,0.4v0.1h-0.1c-0.2-0.1-0.5-0.3-0.8-0.3c0.2,0.1,0.5,0.2,0.7,0.4V9h-0.1
		c-0.3-0.2-0.7-0.4-1.1-0.4c0,0-0.1-0.5,0-0.6c0,0,0.1-0.1,0.2-0.1h-0.2c-0.2-0.1-0.3-0.4-0.3-0.6c0.1-0.3,0.5-0.5,0.9-0.5
		c-0.2,0.1-0.5,0.3-0.6,0.5c0.2-0.1,0.6-0.4,0.8-0.5c0.1,0,0.4,0.1,0.5,0.1L34,7.1c-0.4,0-1.1,0.2-1.4,0.4c0.4-0.2,1-0.4,1.5-0.3
		l0.1,0.1v0.1c-0.4,0-0.9,0.1-1.3,0.3c0.3-0.1,0.8-0.3,1.1-0.2c-0.3,0.1-0.7,0.2-1,0.3C33.3,7.8,33.7,7.7,34.1,7.8z M34.1,7.2
		c-0.2-0.3-0.4-0.7-0.2-1.1l-0.1-0.2l-0.2-0.1c0.1,0,0.3,0,0.3,0.1V6C33.9,6.5,34,6.9,34.1,7.2z M32.4,8.7c-0.3,0.2-0.5,0.5-0.6,0.8
		h-0.1h-0.1c0-0.2,0.2-0.5,0.3-0.7c-0.2,0.1-0.3,0.5-0.4,0.7l-0.1,0.1h-0.1c-0.1-0.3,0.3-0.7,0.5-0.8c-0.3,0.1-0.5,0.4-0.6,0.6
		l-0.1,0.1H31V9.4c0-0.2,0.3-0.5,0.5-0.6c-0.2,0.1-0.4,0.4-0.6,0.5h-0.1c-0.2-0.5,0.7-0.8,1-0.9c-0.3,0-0.7,0.2-1,0.2
		c0.2-0.2,0.7-0.3,1-0.4c-0.4,0-0.9,0.1-1.2,0.4c-0.1,0-0.1-0.1-0.2-0.1V8.4c0.4-0.3,1-0.4,1.4-0.5c-0.4,0-1,0.2-1.4,0.4l0,0V8.2
		c0-0.2,0.2-0.4,0.3-0.5c0.2,0,0.7,0,0.9,0c-0.2-0.1-0.6-0.1-0.8-0.1c0.3-0.2,0.7-0.2,1,0c0.1,0.2,0.3,0.5,0.2,0.7l-0.1,0.1
		C32.1,8.1,32.3,8.6,32.4,8.7L32.4,8.7z M30.3,8.2c-0.1-0.3-0.3-0.7-0.6-0.9V7.2V7.1L29.8,7l-0.1,0.2v0.2C30,7.5,30.3,7.9,30.3,8.2z
		 M34.2,7.8l-0.4-0.1c0.1,0,0.3-0.1,0.4-0.2l0.1-0.2C34.1,6.8,34,6.5,34.2,6L34,5.8h-0.3C33,6,32.3,6.5,32.2,7.3l-0.1-0.1
		c0-0.1,0-0.2,0-0.2L32,7.1c0-0.4,0-0.9-0.1-1.3V5.7H32V5.6l0,0c-0.1,0-0.2,0.1-0.2,0.2c0.1,0.4,0.1,0.9,0.2,1.3l0,0
		c-0.3-0.3-0.7-0.7-0.7-1.1h-0.1l0,0v0.1c0.2,0.4,0.5,0.7,0.8,1.1c0,0-0.1,0-0.2-0.1c0,0.1,0.1,0.2,0.1,0.2v0.1
		c-0.6-0.5-1.6-0.7-2.3-0.3l-0.1,0.2l0.1,0.2c0.2,0.1,0.4,0.4,0.5,0.6c0.1,0.1,0.1,0.4,0.3,0.5c0.2,0,0.5,0,0.7,0
		c-0.2,0.1-0.5,0.4-0.6,0.6l0.1,0.3c0.3,0.4,0.9,0.6,1.3,0.2c0.1-0.2,0.3-0.6,0.5-0.8c0.1,0.1,0.2,0.4,0.4,0.5
		c0-0.2-0.1-0.4-0.1-0.6c0.4,0,0.8,0.3,1.1,0.4c0.5,0,0.9-0.5,0.8-1L34.5,8C34.5,7.9,34.2,7.8,34.2,7.8z"/>
</g>
<path id="pfad1" class="st2" d="M32.8,9.3c0,0,0.1,1.9,2.2,2c2.1,0,2.9,0,3.9,1.2c1.4,1.7-0.6,3.7-0.6,3.7"/>
<path id="pfad2" class="st3" d="M38.3,7.5c0,0-0.1,1.1-1.7,2.3c-1.4,1.1-2.6,0.5-3.7,2.4c-1.1,1.9,1.2,2.6,2.8,4.2"/>
<image style="overflow:visible;enable-background:new    ;" width="22" height="19" id="bild" xlink:href="D3029C12A0E33089.png"  transform="matrix(0.2527 0 0 0.2527 10 20.8)">
</image>
</svg>
